<?xml version="1.0" encoding="UTF-8"?>
<!DOCTYPE svg PUBLIC "-//W3C//DTD SVG 1.1//EN" "http://www.w3.org/Graphics/SVG/1.1/DTD/svg11.dtd">
<svg xmlns="http://www.w3.org/2000/svg" version="1.1" width="64px" height="64px" style="shape-rendering:geometricPrecision; text-rendering:geometricPrecision; image-rendering:optimizeQuality; fill-rule:evenodd; clip-rule:evenodd" xmlns:xlink="http://www.w3.org/1999/xlink">
<g><path style="opacity:0.964" fill="#000000" d="M 5.5,11.5 C 22.8365,11.3334 40.1699,11.5001 57.5,12C 58.8333,14.3333 58.8333,16.6667 57.5,19C 40.1667,19.6667 22.8333,19.6667 5.5,19C 4.22147,16.5024 4.22147,14.0024 5.5,11.5 Z"/></g>
<g><path style="opacity:0.964" fill="#000000" d="M 5.5,27.5 C 22.8365,27.3334 40.1699,27.5001 57.5,28C 58.8333,30.3333 58.8333,32.6667 57.5,35C 40.1667,35.6667 22.8333,35.6667 5.5,35C 4.22147,32.5024 4.22147,30.0024 5.5,27.5 Z"/></g>
<g><path style="opacity:0.964" fill="#000000" d="M 5.5,43.5 C 22.8365,43.3334 40.1699,43.5001 57.5,44C 58.8333,46.3333 58.8333,48.6667 57.5,51C 40.1667,51.6667 22.8333,51.6667 5.5,51C 4.22147,48.5024 4.22147,46.0024 5.5,43.5 Z"/></g>
</svg>
