<?xml version="1.0" encoding="UTF-8"?>
<!DOCTYPE svg PUBLIC "-//W3C//DTD SVG 1.1//EN" "http://www.w3.org/Graphics/SVG/1.1/DTD/svg11.dtd">
<svg xmlns="http://www.w3.org/2000/svg" version="1.1" width="96px" height="96px" style="shape-rendering:geometricPrecision; text-rendering:geometricPrecision; image-rendering:optimizeQuality; fill-rule:evenodd; clip-rule:evenodd" xmlns:xlink="http://www.w3.org/1999/xlink">
<g><path style="opacity:0.909" fill="#4d6579" d="M 37.5,-0.5 C 44.1667,-0.5 50.8333,-0.5 57.5,-0.5C 77.1667,5.16667 89.8333,17.8333 95.5,37.5C 95.5,44.1667 95.5,50.8333 95.5,57.5C 89.8333,77.1667 77.1667,89.8333 57.5,95.5C 50.8333,95.5 44.1667,95.5 37.5,95.5C 17.8333,89.8333 5.16667,77.1667 -0.5,57.5C -0.5,50.8333 -0.5,44.1667 -0.5,37.5C 5.16667,17.8333 17.8333,5.16667 37.5,-0.5 Z M 39.5,8.5 C 63.4799,6.33929 78.9799,16.6726 86,39.5C 88.6484,63.5012 78.4817,79.0012 55.5,86C 31.4988,88.6484 15.9988,78.4817 9,55.5C 6.55884,31.474 16.7255,15.8074 39.5,8.5 Z"/></g>
<g><path style="opacity:0.971" fill="#4d657a" d="M 46.5,18.5 C 57.093,27.4241 67.093,37.0908 76.5,47.5C 74.3514,51.1911 71.3514,53.3578 67.5,54C 62.3333,48.8333 57.1667,43.6667 52,38.5C 51.5001,50.8288 51.3335,63.1622 51.5,75.5C 48.8333,75.5 46.1667,75.5 43.5,75.5C 43.6665,63.1622 43.4999,50.8288 43,38.5C 37.8333,43.6667 32.6667,48.8333 27.5,54C 23.6486,53.3578 20.6486,51.1911 18.5,47.5C 27.8547,37.8127 37.188,28.146 46.5,18.5 Z"/></g>
</svg>
