<?xml version="1.0" encoding="UTF-8"?>
<!DOCTYPE svg PUBLIC "-//W3C//DTD SVG 1.1//EN" "http://www.w3.org/Graphics/SVG/1.1/DTD/svg11.dtd">
<svg xmlns="http://www.w3.org/2000/svg" version="1.1" width="512px" height="512px" style="shape-rendering:geometricPrecision; text-rendering:geometricPrecision; image-rendering:optimizeQuality; fill-rule:evenodd; clip-rule:evenodd" xmlns:xlink="http://www.w3.org/1999/xlink">
<g><path style="opacity:0.996" fill="#000000" d="M 80.5,119.5 C 197.167,119.333 313.834,119.5 430.5,120C 444.444,125.377 449.944,135.544 447,150.5C 444.833,159.333 439.333,164.833 430.5,167C 313.833,167.667 197.167,167.667 80.5,167C 66.5557,161.623 61.0557,151.456 64,136.5C 66.3493,127.652 71.8493,121.986 80.5,119.5 Z"/></g>
<g><path style="opacity:0.996" fill="#000000" d="M 80.5,231.5 C 197.167,231.333 313.834,231.5 430.5,232C 444.444,237.377 449.944,247.544 447,262.5C 444.833,271.333 439.333,276.833 430.5,279C 313.833,279.667 197.167,279.667 80.5,279C 66.5557,273.623 61.0557,263.456 64,248.5C 66.3493,239.652 71.8493,233.986 80.5,231.5 Z"/></g>
<g><path style="opacity:0.996" fill="#000000" d="M 80.5,343.5 C 197.167,343.333 313.834,343.5 430.5,344C 444.444,349.377 449.944,359.544 447,374.5C 444.833,383.333 439.333,388.833 430.5,391C 313.833,391.667 197.167,391.667 80.5,391C 66.5557,385.623 61.0557,375.456 64,360.5C 66.3493,351.652 71.8493,345.986 80.5,343.5 Z"/></g>
</svg>
