<?xml version="1.0" encoding="UTF-8"?>
<!DOCTYPE svg PUBLIC "-//W3C//DTD SVG 1.1//EN" "http://www.w3.org/Graphics/SVG/1.1/DTD/svg11.dtd">
<svg xmlns="http://www.w3.org/2000/svg" version="1.1" width="100px" height="100px" style="shape-rendering:geometricPrecision; text-rendering:geometricPrecision; image-rendering:optimizeQuality; fill-rule:evenodd; clip-rule:evenodd" xmlns:xlink="http://www.w3.org/1999/xlink">
<g><path style="opacity:0.85" fill="#252730" d="M 51.5,15.5 C 53.6648,15.1159 55.3315,15.7826 56.5,17.5C 43.8485,26.1334 41.0152,37.1334 48,50.5C 61.1045,62.8871 73.6045,62.2204 85.5,48.5C 85.8948,64.6394 78.2282,75.1394 62.5,80C 40.9962,83.1329 27.4962,74.2996 22,53.5C 20.8176,32.1914 30.651,19.5248 51.5,15.5 Z"/></g>
<g><path style="opacity:0.757" fill="#242831" d="M 22.5,16.5 C 23.8721,18.0887 25.5388,19.4221 27.5,20.5C 27.0233,21.4776 26.3567,22.3109 25.5,23C 26.731,24.1827 26.731,25.3493 25.5,26.5C 23.8333,25.1667 22.1667,25.1667 20.5,26.5C 19.3652,24.2933 18.6985,21.9599 18.5,19.5C 20.6188,19.5323 21.9522,18.5323 22.5,16.5 Z"/></g>
<g><path style="opacity:1" fill="#a9d4d0" d="M 22.5,19.5 C 26.2494,20.2768 26.4161,21.6101 23,23.5C 20.2643,22.0674 20.0977,20.7341 22.5,19.5 Z"/></g>
<g><path style="opacity:1" fill="#a8a69a" d="M 46.5,22.5 C 43.8205,22.6726 41.4872,23.6726 39.5,25.5C 39.542,24.479 39.542,23.479 39.5,22.5C 42.6574,19.8368 46.3241,18.6702 50.5,19C 49.2949,20.3756 47.9616,21.5423 46.5,22.5 Z"/></g>
<g><path style="opacity:1" fill="#eeead2" d="M 39.5,22.5 C 39.542,23.479 39.542,24.479 39.5,25.5C 41.4872,23.6726 43.8205,22.6726 46.5,22.5C 39.1686,34.3561 40.1686,45.5228 49.5,56C 61.0288,63.6774 72.1955,63.1774 83,54.5C 79.171,69.3131 69.5043,77.3131 54,78.5C 35.4404,76.441 25.6071,66.1076 24.5,47.5C 24.6402,36.215 29.6402,27.8817 39.5,22.5 Z"/></g>
<g><path style="opacity:1" fill="#60605f" d="M 32.5,31.5 C 32.6854,29.8042 33.5187,28.4709 35,27.5C 35.2793,29.4122 34.4459,30.7456 32.5,31.5 Z"/></g>
<g><path style="opacity:0.514" fill="#242831" d="M 59.5,34.5 C 61.4806,35.6861 63.4806,37.0195 65.5,38.5C 63.8624,39.7046 63.5291,41.0379 64.5,42.5C 62.2573,43.4742 59.924,43.8076 57.5,43.5C 57.528,41.4176 56.8613,39.5843 55.5,38C 57.9102,37.9428 59.2435,36.7761 59.5,34.5 Z"/></g>
<g><path style="opacity:1" fill="#656564" d="M 32.5,31.5 C 30.7292,35.3791 29.2292,39.3791 28,43.5C 27.6331,38.7638 29.1331,34.7638 32.5,31.5 Z"/></g>
<g><path style="opacity:1" fill="#a7d1cd" d="M 60.5,37.5 C 64.2494,38.2768 64.4161,39.6101 61,41.5C 58.2643,40.0674 58.0977,38.7341 60.5,37.5 Z"/></g>
<g><path style="opacity:1" fill="#494d51" d="M 52.5,66.5 C 50.8333,63.8333 49.1667,63.8333 47.5,66.5C 46.6236,66.6309 45.9569,66.2975 45.5,65.5C 47.1932,64.7717 48.6932,63.7717 50,62.5C 51.0736,63.6184 52.2402,64.6184 53.5,65.5C 53.3764,66.1067 53.0431,66.44 52.5,66.5 Z"/></g>
<g><path style="opacity:1" fill="#acd8d3" d="M 52.5,66.5 C 50.8333,69.1667 49.1667,69.1667 47.5,66.5C 49.1667,63.8333 50.8333,63.8333 52.5,66.5 Z"/></g>
<g><path style="opacity:1" fill="#34383f" d="M 47.5,66.5 C 49.1667,69.1667 50.8333,69.1667 52.5,66.5C 52.6567,67.8734 52.49,69.2068 52,70.5C 50.6667,69.1667 49.3333,69.1667 48,70.5C 47.51,69.2068 47.3433,67.8734 47.5,66.5 Z"/></g>
</svg>
